<svg id="Capa_1" data-name="Capa 1" xmlns="http://www.w3.org/2000/svg" viewBox="0 0 1000 512"><defs><style>.cls-1{fill:#334155;}.cls-2{fill:#94a3b8;}</style></defs><rect class="cls-1" width="1000" height="512"/><g id="hiuZu3.tif"><path class="cls-2" d="M375.41,200.28c-.24-5,1.49-9.65,7.87-10.95,13.17-2.69,26.29-5.6,39.45-8.33,1.46-.3,2-.77,2.2-2.27A109.29,109.29,0,0,1,427,167.22c1.53-6.05,4.72-8.36,10.92-7.64,11.85,1.39,23.66,3.06,35.5,4.58,6.59.84,13.2,2.29,19.8,2.22s13.34-1.41,19.92-2.66c27.2-5.16,54.35-10.53,81.54-15.72a67,67,0,0,1,10.78-1.06c5.28-.13,7.83,1.85,9.15,7.08,1.58,6.3,2.86,12.68,4.35,19,.78,3.3,1.82,6.54,2.6,9.84.47,2,1.64,2.58,3.53,2.81,5.95.75,11.92,1.43,17.79,2.61,8,1.62,9.86,4.4,9,12.78-1,9.69-2.61,19.33-4,29l-5.85,42.09c-.3,2.15-.43,4.34-.9,6.45-1.57,7,1.06,13.57,2,20.31.64,4.65,1.64,9.25,2.18,13.91.39,3.32-1.16,6-3.77,8.09a4.75,4.75,0,0,1-1.45.94c-4.74,1.45-5.82,5.22-6.41,9.53-.69,5-1.5,10-2.64,14.93-1.36,5.86-4.43,7.73-10.44,7.27-20.15-1.52-40-4.84-60-7.9a185.28,185.28,0,0,0-24.17-2.32c-5.33-.1-10.73,1.24-16,2.25-20.8,3.95-41.57,8.1-62.38,12-12.78,2.42-25.61,4.58-38.42,6.83-.78.14-1.6.07-2.38.22-8.24,1.59-10-2.18-11.49-7.85-2.09-8-3.71-16.19-5.3-24.34Q393.09,294.76,385.9,257q-5-26.07-10-52.16C375.66,203.31,375.58,201.78,375.41,200.28ZM613.53,333.73c1.73.37,2.34-.49,2.58-1.79.52-2.91,1.11-5.82,1.53-8.75q3.39-23.49,6.72-47,3.38-23.73,6.78-47.44c1-7.15,2-14.31,3.13-21.46.45-3,.56-3.14-2.55-3.61q-25.74-3.85-51.5-7.54c-15-2.16-30.06-4.25-45.1-6.37q-22.11-3.12-44.24-6.25c-15.24-2.14-30.5-4.21-45.74-6.42-2.1-.3-3,.18-3.26,2.33-1.57,11.24-3.28,22.46-4.88,33.69q-3.21,22.42-6.34,44.87t-6.24,45.1c-.47,3.51-.22,3.76,3.33,4.54.21.05.43.06.65.09l27.49,3.83,51.35,7.14q24.16,3.38,48.32,6.8c12.82,1.81,25.62,3.67,38.43,5.49C600.58,331.92,607.16,332.84,613.53,333.73Zm-204-53.29h.76c4.3-26.59,7.66-53.33,11.6-80.24a14.08,14.08,0,0,0-1.9,0c-7.25,1.31-14.5,2.58-21.73,4-3,.6-3.39,1.31-2.79,4.47Q401.69,241.36,408,274C408.41,276.15,409,278.29,409.52,280.44Zm58.18,53.43,0-.59c-1.1-.27-2.18-.62-3.29-.8-7.35-1.17-14.69-2.37-22.05-3.42q-10.41-1.49-20.84-2.66c-2.75-.31-3.54.59-3,3.21.66,3.39,1.39,6.78,2.24,10.13s1.28,3.54,4.7,2.87c10.19-2,20.38-4,30.56-6C459.9,335.8,463.79,334.79,467.7,333.87ZM602,181.06c-.56-2.9-1.16-5.79-1.67-8.7-1-5.88-2-6.65-7.78-5.6-12.06,2.19-24.11,4.45-36.15,6.7a6.91,6.91,0,0,0-1.45.72C557.92,176.48,596.05,181.94,602,181.06Z"/><path class="cls-2" d="M438.12,298.1c.7-.74,1.07-1.16,1.47-1.56,10.48-10.51,21-21,31.42-31.55,1.15-1.16,2-1.41,3.47-.6,10.61,5.76,21.3,11.39,31.92,17.14a2.14,2.14,0,0,0,3-.6c4.29-4.61,8.7-9.11,12.87-13.82,9-10.13,17.82-20.36,26.73-30.54.08-.09.26-.12.76-.33a18.46,18.46,0,0,1,1.83,2.36q8.52,15.74,17,31.52c1.16,2.15,2.37,4.27,3.82,6.87l17.83-15.22.78.12,9.89,55.78a50.29,50.29,0,0,1-5.64,0q-22.51-2.65-45-5.43-21.42-2.65-42.84-5.39L457,300.47Z"/><path class="cls-2" d="M483.36,201.47c11.56.15,19.74,8.19,20,18.18.28,11.89-9.72,18.8-18.24,19.32-9,.55-19.32-9.52-19.35-18.61C465.69,212.42,474.77,201.39,483.36,201.47Z"/></g></svg>