<svg id="Person" xmlns="http://www.w3.org/2000/svg" viewBox="0 0 276 385.01"><defs><style>.cls-1{fill:#e3e8f1;}.cls-2{fill:#94a3b8;}</style></defs><rect class="cls-1" width="276" height="385"/><path class="cls-2" d="M276,385,0,385V318.52c7.33-8.19,20.66-17.41,31-20.68,8.16-2.58,16.6-4.3,25-6.11,13.75-3,27.47-6,39.67-13.43,10.67-6.52,13.58-13.35,11.83-25.67a32.65,32.65,0,0,0-4.08-11.13c-4-7.47-7.26-15.33-10.68-23.1C92.1,217,91.6,216,90,215.64a18.84,18.84,0,0,1-3.3-1.59c-3-1.34-4.87-.34-5.15,2.93-.19,2.26,0,4.56,0,6.85V226l-.89.08c-.64-3.08-1.28-6.17-2-9.68l-6.28,4.85a75.22,75.22,0,0,0-2.12-24.34c-1.43,1.55-2.6,2.4-3.21,3.55-2.44,4.63-4.71,9.35-7.24,14.43-1.2-6.33.85-12,2.35-18L59.6,197c1.66-4.56,1.7-9.12,1.45-14.37l-6.26,4c.81-4.06,1.83-7.68,2.19-11.37s.08-7.43.08-11.5l-5.41,2.4a65,65,0,0,0,8.18-23.69l-7,2.1-.38-.69c9.43-4.61,12.3-13.39,14.57-22.51C69.81,110,73.29,99,80.34,89.3c8.51-11.65,20-17.8,34.24-19.07a76.46,76.46,0,0,1,25.09,1.84,5.38,5.38,0,0,0,3-.39c13.86-5.5,26.47-2.56,38.39,5.5a43.64,43.64,0,0,1,12,11.31c4,5.84,4.73,12.48,4.73,19.35,0,2,.4,4.38,1.57,5.81,7.68,9.35,9.84,19.94,7.87,31.63a2.31,2.31,0,0,0-.06.78c1.28,6.77-.29,13.46-.5,20.18a9.1,9.1,0,0,0,.3,3.13,29.12,29.12,0,0,1-.17,17.88c-1.73,5.78-3.15,11.65-4.9,17.43-1,3.27-3.32,5.57-6.83,5.68-2.88.09-3.34,1.72-3.92,3.91-1.57,5.91-3.19,11.82-5.11,17.63a22.35,22.35,0,0,1-3.71,6.92,23.64,23.64,0,0,0-4.41,9.85c-2.58,11,2.84,28.86,12.81,34.36a96.29,96.29,0,0,0,17.08,7.28c7.42,2.37,15.11,3.87,22.65,5.86,5.41,1.43,11,2.57,16.1,4.7,13.16,5.45,22.63,13,29.43,25.38Z" transform="translate(0 0)"/></svg>