<svg id="Person" xmlns="http://www.w3.org/2000/svg" viewBox="0 0 276 385"><defs><style>.cls-1{fill:#e3e8f1;}.cls-2{fill:#94a3b8;}</style></defs><rect class="cls-1" width="276" height="385"/><path class="cls-2" d="M26.91,258.83c11.23-12.73,17.32-28.09,22.5-44-3.71,3.48-6.69,7.76-12,9.26C50,209,56.65,191.84,56.79,171.83a7,7,0,0,0-1.9.83c-10,9.14-19.53,18.65-26.43,30.44-5.15,8.79-8.21,18.1-7.7,28.49a180.91,180.91,0,0,1-.12,19.76c-.23,3.64-1.52,7.21-2.33,10.81l-.89-.11a14.9,14.9,0,0,1,0-3C19.18,251,19,242.7,18,234.63a45.16,45.16,0,0,1,3.65-23.85c6.12-14.41,15.34-26.84,25.12-38.89,3.41-4.21,7.09-8.19,10.62-12.29a11.5,11.5,0,0,0,1-1.68l-.62-.87c-5.7,2.4-11.49,4.58-17.06,7.26a51.65,51.65,0,0,0-15.52,11.57c-7.79,8.39-10.47,18.34-9.27,29.52.16,1.56.42,3.1.7,5.19-2.78-3.09-3.71-6.51-4.37-9.93C10,189,15,179.85,23.1,172.07c7-6.76,15.43-11.55,23.94-16.15a20.72,20.72,0,0,0,2.08-1.46L35.7,151.93l.07-.86c.36-.1.73-.33,1.06-.27C49.81,153.11,59,146.74,66,137c6-8.29,11.25-17.11,16.39-26,7.06-12.18,13.58-24.69,22.46-35.71C111.74,66.75,119.64,59.2,130,55a54.83,54.83,0,0,1,14.62-3.86C155.49,50,166.44,49.31,177.07,53c9.38,3.25,15.61,9.73,19,18.93,2.27,6.24,3.78,12.77,6.31,18.89,1.32,3.18,3.93,5.91,6.27,8.56,7.92,9,12.65,19.43,15.27,31a145.93,145.93,0,0,1,3.23,41.76c-1.57,24.66-11.91,45.12-30.4,61.44-3,2.69-6.42,5-9.71,7.42a4.46,4.46,0,0,0-2.05,3.95c-.12,7.57,1,14.84,5.2,21.28a31.5,31.5,0,0,0,17.93,13.26c8,2.27,16.2,3.63,24.34,5.28,23.68,4.81,35.57,12.28,43.59,26.79V385H0V302.45s2.61-6,20.66-18.19a124,124,0,0,0,14.11-11.49c5.41-4.94,7.87-11.44,8.47-18.67a7.28,7.28,0,0,0-.11-1.74c-.46-2.89-.91-3.09-3.36-1.43q-6.26,4.24-12.49,8.52Z" transform="translate(0 0)"/></svg>