<svg id="Person" xmlns="http://www.w3.org/2000/svg" viewBox="0 0 276 385"><defs><style>.cls-1{fill:#e3e8f1;}.cls-2{fill:#94a3b8;}</style></defs><rect class="cls-1" width="276" height="374"/><path class="cls-2" d="M214.62,106.5a.16.16,0,0,1,0,.28,13.87,13.87,0,0,1-2,1c-4.6,1.54-6.88,4.5-7,9.45-.09,3,0,6,0,8.92l-.93.29-1.75-2.55-1.1.51,2.79,10a.17.17,0,0,1-.23.19l-2.26-1.13a.16.16,0,0,0-.23.15c0,1.67,0,3.1,0,4.53.08,2.61.31,5.22.31,7.83a9.17,9.17,0,0,1-2.63,6.52c-1.48,1.63-2.73,4.49-2.4,6.53,1,6.48-1.68,12.32-2.25,18.49-.2,2.13-1,2.38-3.23,1a.17.17,0,0,0-.24.07c-1.54,3.44.61,7.11-.59,10.61a.17.17,0,0,1-.26.07c-2-1.52-2.82-.68-3.5,1.61-.86,2.92-1.65,6.05-5.18,7.34-.67.24-1,2.05-1.1,3.17-.9,9.4-3,18.35-8.95,26a7.62,7.62,0,0,1-1.34,1.58c-3.93,2.88-4.71,6.79-4.49,11.44.42,8.59,1.28,17,5.65,24.67,3.36,5.89,8.48,9.65,14.6,12,15.15,5.89,30.45,11.39,45.54,17.43,12,4.82,23.79,10.34,33.92,18.74A45,45,0,0,1,276,326.16V385H0V311.43s8.82-7.82,18-10.89c10.63-3.55,21.38-6.76,32-10.26C60.44,286.86,71,283.8,80.11,277.4a18.08,18.08,0,0,0,8-13.46c.72-6.31,2-12.58,2.28-18.9a26.34,26.34,0,0,0-5.69-17.79c-5.72-7.38-7.89-16.16-9.74-25.07-.18-.82-1-2.15-1.57-2.15-4.7,0-7.25-3.1-8.87-6.66a231.82,231.82,0,0,1-9-22.42,131.44,131.44,0,0,1-4.1-18,99.8,99.8,0,0,1-.86-10.55,3.78,3.78,0,0,1,0-1.3c1.35-4.37,1.27-8.46-1.48-12.45-.63-.89-.06-2.88.41-4.21,1-2.78,2.54-5.38,3.34-8.2a31.85,31.85,0,0,0,1.15-8.13c.07-3.92-.44-7.88,1.4-11.54.62-1.22,1.25-2.7,2.31-3.4,4.09-2.69,6.17-6.74,7.94-11s3.81-8,7.74-10.54a6,6,0,0,0,2.87-6c-.26-2,.62-3.08,2.46-4,7-3.63,14.09-1,21.16-.74,1.43.07,2.8,1.27,4.4-.58a3.45,3.45,0,0,0,.78-2.42c0-2,1-3.15,3-2.92a28.27,28.27,0,0,1,6.65,2c2.5,1,4.87,2.3,7.33,3.37,4.66,2,9.29.92,13.8-.46,6-1.84,11.79-1.17,17.64.83,3.76,1.28,7.69,2.7,11.58,2.8,6.33.16,9.85,3.53,12.69,8.49,4.14,7.24,8.21,14.54,12.64,21.6,2.52,4,7,5.63,11.29,7.06,2.06.68,4.27.92,6.29,1.67a20.12,20.12,0,0,1,3.52,2.31C212.36,105.18,213.42,105.78,214.62,106.5Z" transform="translate(0 0)"/></svg>