<svg id="Capa_1" data-name="Capa 1" xmlns="http://www.w3.org/2000/svg" viewBox="0 0 270 400"><defs><style>.cls-1{fill:#94a3b8;}.cls-2{fill:#e3e8f1;}</style></defs><rect class="cls-1" width="270" height="400"/><path class="cls-2" d="M49,131.43c-.15-3.13.93-6,4.91-6.83,8.21-1.68,16.39-3.5,24.6-5.19.91-.19,1.24-.48,1.37-1.42a69.67,69.67,0,0,1,1.3-7.18c1-3.77,3-5.21,6.81-4.76,7.39.86,14.76,1.91,22.14,2.85,4.11.53,8.24,1.43,12.35,1.38a72,72,0,0,0,12.43-1.65c17-3.22,33.89-6.57,50.85-9.8a40.81,40.81,0,0,1,6.72-.67c3.29-.08,4.88,1.16,5.7,4.42,1,3.93,1.79,7.91,2.72,11.85.49,2.06,1.13,4.08,1.62,6.14.29,1.22,1,1.61,2.2,1.76,3.71.46,7.44.88,11.1,1.62,5,1,6.15,2.75,5.59,8C220.77,138,219.79,144,219,150q-1.81,13.14-3.65,26.26c-.19,1.34-.27,2.7-.56,4-1,4.36.66,8.46,1.25,12.66.4,2.9,1,5.78,1.36,8.68a5.51,5.51,0,0,1-2.35,5,3.05,3.05,0,0,1-.91.58c-3,.9-3.63,3.26-4,5.94-.43,3.13-.93,6.25-1.64,9.32-.85,3.65-2.76,4.81-6.52,4.53-12.56-.95-25-3-37.41-4.93a113.85,113.85,0,0,0-15.07-1.44c-3.32-.07-6.69.77-10,1.4-13,2.46-25.92,5.05-38.9,7.5-8,1.51-16,2.85-24,4.26-.49.09-1,0-1.48.14-5.14,1-6.24-1.36-7.17-4.9-1.3-5-2.31-10.1-3.31-15.18Q60,190.34,55.55,166.78q-3.12-16.28-6.21-32.53C49.16,133.32,49.11,132.37,49,131.43Zm148.5,83.22c1.08.23,1.46-.3,1.61-1.11.32-1.82.69-3.63.95-5.46q2.12-14.65,4.19-29.31l4.23-29.59c.64-4.46,1.27-8.92,1.95-13.38.28-1.85.35-2-1.59-2.25q-16-2.42-32.11-4.71c-9.37-1.34-18.75-2.64-28.13-4L121,121c-9.51-1.34-19-2.63-28.53-4-1.31-.19-1.84.12-2,1.46-1,7-2,14-3,21q-2,14-4,28t-3.89,28.13c-.29,2.18-.13,2.34,2.08,2.83a2.73,2.73,0,0,0,.4.05l17.15,2.39,32,4.45,30.14,4.24,24,3.43C189.43,213.53,193.54,214.1,197.51,214.65ZM70.28,181.42h.48c2.67-16.59,4.77-33.26,7.23-50.05a8.68,8.68,0,0,0-1.19,0c-4.52.82-9,1.61-13.55,2.5-1.88.38-2.11.82-1.74,2.79Q65.4,157,69.33,177.39C69.59,178.75,70,180.08,70.28,181.42Zm36.28,33.32,0-.37c-.68-.17-1.36-.39-2.05-.5-4.58-.72-9.16-1.48-13.75-2.13-4.32-.62-8.66-1.16-13-1.66-1.71-.19-2.2.37-1.88,2,.41,2.12.86,4.23,1.39,6.32s.8,2.21,2.93,1.79c6.36-1.24,12.72-2.47,19.06-3.75C101.7,215.94,104.12,215.31,106.56,214.74Zm83.78-95.3c-.35-1.81-.73-3.61-1-5.42-.64-3.67-1.24-4.15-4.86-3.5-7.52,1.37-15,2.78-22.54,4.18a4.18,4.18,0,0,0-.9.45C162.83,116.59,186.61,120,190.34,119.44Z"/><path class="cls-2" d="M88.12,192.43c.43-.46.67-.72.92-1q9.79-9.83,19.59-19.67a1.51,1.51,0,0,1,2.16-.38c6.62,3.59,13.28,7.11,19.91,10.69a1.33,1.33,0,0,0,1.87-.37c2.68-2.88,5.42-5.69,8-8.63,5.59-6.31,11.11-12.69,16.67-19,0-.06.16-.07.47-.21a10.73,10.73,0,0,1,1.14,1.48q5.31,9.81,10.59,19.65c.72,1.34,1.47,2.66,2.37,4.29l11.13-9.5.48.08c2.05,11.53,4.09,23.07,6.17,34.79a31.43,31.43,0,0,1-3.51,0Q172.06,203,158,201.23q-13.36-1.65-26.71-3.36l-31.41-4Z"/><path class="cls-2" d="M116.33,132.17c7.21.1,12.31,5.11,12.45,11.34.17,7.41-6.06,11.72-11.38,12.05-5.58.34-12-5.94-12.07-11.61C105.31,139,111,132.12,116.33,132.17Z"/></svg>