<?xml version="1.0" encoding="utf-8"?>
<!-- Generator: Adobe Illustrator 25.1.0, SVG Export Plug-In . SVG Version: 6.00 Build 0)  -->
<svg version="1.1" id="logo" xmlns="http://www.w3.org/2000/svg" xmlns:xlink="http://www.w3.org/1999/xlink" x="0px" y="0px"
	 viewBox="0 0 435.35 63.6" style="enable-background:new 0 0 435.35 63.6;" xml:space="preserve">
<path fill="#00B6D4" d="M34.8,0c17,0,29.09,13.79,27,30.77c-2.09,17.02-17.58,30.78-34.62,30.76c-17-0.02-29.05-13.81-26.94-30.82
	C2.34,13.76,17.82,0,34.8,0z M16.55,30.73c-0.45,3.67-0.91,7.34-1.35,11.01c-0.14,1.17-0.15,2.32,0.1,3.44
	c0.52,2.33,2.28,3.66,4.75,3.54c1.34-0.07,2.62-0.51,3.84-1.17c6.48-3.48,12.96-6.97,19.44-10.47c1.34-0.72,2.69-1.41,3.84-2.46
	c2.18-1.98,2.83-4.48,1.68-6.65c-0.61-1.15-1.52-2.01-2.61-2.68c-5.78-3.6-11.58-7.2-17.36-10.8c-1.11-0.69-2.23-1.33-3.58-1.59
	c-2.64-0.5-4.99,0.67-6.32,3.18c-0.64,1.19-0.92,2.45-1.08,3.73C17.44,23.46,16.99,27.1,16.55,30.73z"/>
<path d="M109.32,19.85H89.55l-1.36,7.66h19.35l-2.86,16.32H85.28l-3.31,18.59H65.23L75.68,3.53h36.5L109.32,19.85z"/>
<path d="M143.81,20.36h15.56l-7.4,42.06h-15.56l0.67-3.7c-3.25,3.25-7.18,4.88-11.78,4.88c-5.61,0-9.83-2.19-12.66-6.56
	c-2.83-4.38-3.83-9.65-2.99-15.82c0.84-6.11,3.24-11.32,7.19-15.61s8.85-6.44,14.68-6.44c5.38,0,9.2,1.96,11.44,5.89L143.81,20.36z
	 M131.28,49.3c2.3,0,4.22-0.7,5.76-2.1c1.54-1.4,2.54-3.25,2.99-5.55l0.08-0.25c0.39-2.3,0.06-4.19-1.01-5.68
	c-1.07-1.49-2.75-2.23-5.05-2.23c-2.3,0-4.26,0.73-5.89,2.19c-1.63,1.46-2.64,3.37-3.03,5.72c-0.39,2.3-0.06,4.19,1.01,5.68
	C127.21,48.56,128.92,49.3,131.28,49.3z"/>
<path d="M205.74,35.88c-0.79,1.66-1.81,3.19-3,4.63c-1.52,1.86-3.22,3.52-5.03,5.03c-2.73,2.28-5.48,4.54-8.22,6.81
	c-3.85,3.19-7.71,6.38-11.56,9.57c-0.8,0.67-1.74,0.66-2.18,0c-2.31-3.45-4.62-6.89-6.93-10.34c-1.45-2.15-2.9-4.3-4.35-6.45
	c-0.48-0.71-0.84-1.5-1.2-2.3c-0.78-1.72-1.3-3.59-1.36-5.7c-0.03-1.16,0.03-2.34,0.32-3.56c0.25-1.04,0.59-2.08,1.01-3.12
	c0.45-1.1,0.98-2.17,1.66-3.2c1.9-2.87,4.34-4.84,7.28-5.96c1.07-0.41,2.13-0.66,3.19-0.79c0.48-0.06,0.96-0.1,1.44-0.13
	c0.88-0.05,1.73-0.02,2.53,0.16c1.16,0.27,2.2,0.73,3.1,1.42c1.52,1.16,2.82,2.56,3.89,4.19c0.02,0.03,0.03,0.08,0.04,0.13
	c0.06-0.05,0.09-0.07,0.11-0.09c1.47-1.25,3.03-2.33,4.62-3.33c1.25-0.78,2.51-1.43,3.82-1.88c1.1-0.38,2.19-0.61,3.25-0.63
	c0.97-0.01,1.91,0.05,2.81,0.22c0.93,0.17,1.8,0.45,2.6,0.87c1.85,0.99,3.07,2.56,3.6,4.79c0.41,1.74,0.31,3.44-0.11,5.59
	C206.77,33.3,206.25,34.85,205.74,35.88z"/>
<path d="M277.58,3.53l-10.43,58.89H250.4l5.03-28.41L238.9,55.78h-1.52l-9.61-22.8l-5.21,29.45h-16.74l10.41-58.89h17.16l9.01,24.15
	l18.45-24.15H277.58z"/>
<path d="M313.37,57.38c-4.52,4.15-10.22,6.23-17.12,6.23c-6.9,0-12.13-2.36-15.69-7.07c-3.56-4.71-4.81-10.1-3.74-16.15
	c1.01-5.83,3.79-10.82,8.33-14.98c4.54-4.15,10.29-6.23,17.25-6.23c6.73,0,11.9,2.37,15.52,7.11c3.62,4.74,4.89,10.11,3.83,16.11
	C320.68,48.24,317.89,53.23,313.37,57.38z M292.93,46.73c1.09,1.38,2.68,2.06,4.75,2.06c2.07,0,3.88-0.69,5.43-2.06
	c1.54-1.37,2.51-3.15,2.9-5.34c0.39-2.19,0.05-3.97-1.01-5.34c-1.07-1.37-2.64-2.06-4.71-2.06c-2.08,0-3.9,0.69-5.47,2.06
	c-1.57,1.38-2.55,3.15-2.94,5.34C291.48,43.58,291.83,45.36,292.93,46.73z"/>
<path d="M354.22,20.36h17.08l-22.97,42.06h-16.86l-7.28-42.06h15.68l3.34,21.75L354.22,20.36z"/>
<path d="M367.26,62.42l7.5-42.06h15.46l-7.5,42.06H367.26z M389.72,14.64c-1.91,1.68-4.07,2.52-6.48,2.52
	c-2.41,0-4.33-0.85-5.76-2.57c-1.43-1.71-1.95-3.71-1.56-6.02c0.34-2.24,1.46-4.23,3.37-5.97c1.91-1.74,4.12-2.61,6.65-2.61
	c2.41,0,4.32,0.86,5.72,2.57c1.4,1.71,1.91,3.72,1.51,6.02C392.78,10.94,391.63,12.96,389.72,14.64z"/>
<path d="M416.3,19.18c6.51,0,11.51,2.16,15.02,6.48c3.5,4.32,4.72,9.51,3.66,15.56c-0.28,1.8-0.81,3.62-1.6,5.47h-27.43
	c0.9,2.81,3.39,4.21,7.49,4.21c3.2,0,5.78-0.9,7.74-2.69l9,9.09c-4.88,4.21-10.94,6.31-18.17,6.31c-7.57,0-13.18-2.21-16.83-6.65
	c-3.65-4.43-4.91-9.9-3.79-16.41c1.01-6.17,3.84-11.27,8.5-15.31C404.55,21.2,410.02,19.18,416.3,19.18z M407.47,36.68h13.88
	c-0.22-3.37-2.1-5.05-5.64-5.05C411.96,31.63,409.21,33.32,407.47,36.68z"/>
</svg>
